STARTFONT 2.1
FONT -Monotype-Arial Narrow-Bold-I-Normal--25-180-100-100-P-108-iso8859-9
SIZE 18 100 100
FONTBOUNDINGBOX 27 29 -5 -6

STARTPROPERTIES 24
FOUNDRY "Monotype"
FAMILY_NAME "Arial Narrow"
WEIGHT_NAME "Bold"
SLANT "I"
SETWIDTH_NAME "Normal"
ADD_STYLE_NAME ""
PIXEL_SIZE 25
POINT_SIZE 180
RESOLUTION_X 100
RESOLUTION_Y 100
SPACING "P"
AVERAGE_WIDTH 108
CHARSET_REGISTRY "iso8859"
CHARSET_ENCODING "9"
FACE_NAME "Arial Narrow Bold Italic ISO Latin5"
_DEC_DEVICE_FONTNAMES "PS=arialnarrow-bit-lat5"
COPYRIGHT "Copyright (c) 1993 Monotype Typography Ltd."
CAP_HEIGHT 20
X_HEIGHT 15
WEIGHT 10
QUAD_WIDTH 13
DEFAULT_CHAR 160
FONT_DESCENT 6
FONT_ASCENT 23
ENDPROPERTIES

CHARS 191

STARTCHAR space
ENCODING 32
SWIDTH 228 0
DWIDTH 6 0
BBX 0 0 0 0
BITMAP
ENDCHAR

STARTCHAR exclam
ENCODING 33
SWIDTH 273 0
DWIDTH 7 0
BBX 6 18 1 0
BITMAP
1C
1C
1C
1C
3C
38
38
38
38
30
30
30
30
20
00
70
60
E0
ENDCHAR

STARTCHAR quotedbl
ENCODING 34
SWIDTH 389 0
DWIDTH 10 0
BBX 8 7 3 11
BITMAP
77
E7
E7
E7
E6
C6
C6
ENDCHAR

STARTCHAR numbersign
ENCODING 35
SWIDTH 456 0
DWIDTH 11 0
BBX 11 19 1 -1
BITMAP
0CC0
1CC0
18C0
18C0
19C0
FFE0
FFE0
FFE0
3980
3180
3380
FFE0
FFE0
FFE0
6300
6300
6700
6600
6600
ENDCHAR

STARTCHAR dollar
ENCODING 36
SWIDTH 456 0
DWIDTH 11 0
BBX 11 21 1 -2
BITMAP
0100
0700
1FC0
1FE0
3B60
3260
3200
3A00
3E00
1F00
0F80
07C0
05C0
ECC0
ECC0
69C0
7F80
3F00
0E00
1800
1800
ENDCHAR

STARTCHAR percent
ENCODING 37
SWIDTH 729 0
DWIDTH 18 0
BBX 16 19 2 -1
BITMAP
3C06
7E0C
661C
E618
C630
CE70
CC60
FCE0
79C0
019E
03BF
0733
0673
0E63
0C63
1867
3866
303E
703C
ENDCHAR

STARTCHAR ampersand
ENCODING 38
SWIDTH 592 0
DWIDTH 15 0
BBX 12 18 2 0
BITMAP
0780
0FC0
1CC0
1CC0
1DC0
1DC0
0F80
1F00
3E00
7B00
7720
E3B0
E3F0
E1E0
F1E0
7FF0
7F70
1E20
ENDCHAR

STARTCHAR quoteright
ENCODING 39
SWIDTH 228 0
DWIDTH 6 0
BBX 4 7 3 11
BITMAP
70
E0
A0
60
60
C0
80
ENDCHAR

STARTCHAR parenleft
ENCODING 40
SWIDTH 273 0
DWIDTH 7 0
BBX 8 23 1 -5
BITMAP
07
06
0C
1C
18
38
30
70
70
70
60
E0
E0
E0
E0
E0
E0
60
60
60
60
70
30
ENDCHAR

STARTCHAR parenright
ENCODING 41
SWIDTH 273 0
DWIDTH 7 0
BBX 8 23 -2 -5
BITMAP
0C
06
06
06
06
07
07
07
07
07
07
07
07
06
0E
0E
0C
1C
18
38
30
60
E0
ENDCHAR

STARTCHAR asterisk
ENCODING 42
SWIDTH 319 0
DWIDTH 8 0
BBX 7 9 2 9
BITMAP
18
10
92
FE
7E
38
6E
6C
24
ENDCHAR

STARTCHAR plus
ENCODING 43
SWIDTH 479 0
DWIDTH 12 0
BBX 11 13 1 2
BITMAP
0E00
0E00
0E00
0E00
0E00
FFE0
FFE0
FFE0
0E00
0E00
0E00
0E00
0E00
ENDCHAR

STARTCHAR comma
ENCODING 44
SWIDTH 228 0
DWIDTH 6 0
BBX 4 7 0 -4
BITMAP
70
70
70
30
20
E0
80
ENDCHAR

STARTCHAR minus
ENCODING 45
SWIDTH 479 0
DWIDTH 12 0
BBX 10 3 2 7
BITMAP
FFC0
FFC0
FFC0
ENDCHAR

STARTCHAR period
ENCODING 46
SWIDTH 228 0
DWIDTH 6 0
BBX 3 3 1 0
BITMAP
E0
E0
E0
ENDCHAR

STARTCHAR slash
ENCODING 47
SWIDTH 228 0
DWIDTH 6 0
BBX 9 19 -1 -1
BITMAP
0180
0180
0380
0300
0300
0600
0600
0600
0C00
0C00
1800
1800
1800
3000
3000
6000
6000
6000
C000
ENDCHAR

STARTCHAR zero
ENCODING 48
SWIDTH 456 0
DWIDTH 11 0
BBX 11 18 1 0
BITMAP
0700
0FC0
1FC0
38E0
38E0
70E0
70E0
70E0
F0E0
E1E0
E1C0
E1C0
E1C0
E380
E380
7F00
7E00
1C00
ENDCHAR

STARTCHAR one
ENCODING 49
SWIDTH 456 0
DWIDTH 11 0
BBX 8 18 3 0
BITMAP
07
0E
1E
7E
FE
EE
DC
1C
1C
1C
1C
1C
38
38
38
38
38
30
ENDCHAR

STARTCHAR two
ENCODING 50
SWIDTH 456 0
DWIDTH 11 0
BBX 11 18 1 0
BITMAP
0700
1FC0
1FC0
38E0
38E0
18E0
00E0
01C0
03C0
0380
0700
0F00
1E00
3C00
3800
7FC0
7FC0
FF80
ENDCHAR

STARTCHAR three
ENCODING 51
SWIDTH 456 0
DWIDTH 11 0
BBX 11 18 1 0
BITMAP
0780
0FC0
1FE0
38E0
38E0
00E0
01E0
07C0
0780
0780
01C0
01C0
01C0
E1C0
7380
7F80
3F00
1C00
ENDCHAR

STARTCHAR four
ENCODING 52
SWIDTH 456 0
DWIDTH 11 0
BBX 11 18 1 0
BITMAP
00E0
01C0
03C0
03C0
07C0
0FC0
1D80
1D80
3B80
7380
6380
FFC0
FFC0
FFC0
0700
0700
0700
0700
ENDCHAR

STARTCHAR five
ENCODING 53
SWIDTH 456 0
DWIDTH 11 0
BBX 11 18 1 0
BITMAP
1FE0
1FC0
3FC0
3800
3800
3600
7F80
7F80
71C0
01C0
01C0
01C0
E1C0
E380
E380
7F00
7F00
3C00
ENDCHAR

STARTCHAR six
ENCODING 54
SWIDTH 456 0
DWIDTH 11 0
BBX 11 18 1 0
BITMAP
0780
1FC0
3FC0
38E0
7080
7000
7700
FF80
F3C0
F1C0
E1C0
E1C0
E1C0
E1C0
7380
7F80
3F00
1C00
ENDCHAR

STARTCHAR seven
ENCODING 55
SWIDTH 456 0
DWIDTH 11 0
BBX 10 18 2 0
BITMAP
7FC0
FFC0
FFC0
0380
0300
0700
0E00
0E00
1C00
1C00
1800
3800
3800
3000
7000
7000
7000
6000
ENDCHAR

STARTCHAR eight
ENCODING 56
SWIDTH 456 0
DWIDTH 11 0
BBX 10 18 2 0
BITMAP
0E00
1F80
3F80
71C0
71C0
71C0
3180
1F80
3E00
7F00
7380
E380
E380
E380
E700
7F00
7E00
1C00
ENDCHAR

STARTCHAR nine
ENCODING 57
SWIDTH 456 0
DWIDTH 11 0
BBX 11 18 1 0
BITMAP
0F00
1FC0
3FC0
38E0
78E0
70E0
70E0
70E0
71E0
39E0
3FE0
1EC0
01C0
E1C0
6380
7F80
7F00
1C00
ENDCHAR

STARTCHAR colon
ENCODING 58
SWIDTH 273 0
DWIDTH 7 0
BBX 6 13 1 0
BITMAP
1C
38
38
00
00
00
00
00
00
00
70
70
E0
ENDCHAR

STARTCHAR semicolon
ENCODING 59
SWIDTH 273 0
DWIDTH 7 0
BBX 6 17 1 -4
BITMAP
1C
38
38
00
00
00
00
00
00
00
70
70
70
20
60
C0
80
ENDCHAR

STARTCHAR less
ENCODING 60
SWIDTH 479 0
DWIDTH 12 0
BBX 10 14 2 2
BITMAP
0040
00C0
03C0
0FC0
3F00
FC00
E000
F000
FC00
7F00
1FC0
07C0
01C0
0040
ENDCHAR

STARTCHAR equal
ENCODING 61
SWIDTH 479 0
DWIDTH 12 0
BBX 10 8 2 5
BITMAP
FFC0
FFC0
FFC0
0000
0000
FFC0
FFC0
FFC0
ENDCHAR

STARTCHAR greater
ENCODING 62
SWIDTH 479 0
DWIDTH 12 0
BBX 10 14 2 2
BITMAP
8000
C000
F000
FC00
7F00
1FC0
05C0
03C0
0FC0
3F00
FC00
F000
E000
8000
ENDCHAR

STARTCHAR question
ENCODING 63
SWIDTH 501 0
DWIDTH 13 0
BBX 10 18 3 0
BITMAP
1E00
3F80
7F80
E1C0
E1C0
41C0
0380
0780
0F00
1E00
1C00
3800
3800
3000
0000
7000
7000
7000
ENDCHAR

STARTCHAR at
ENCODING 64
SWIDTH 800 0
DWIDTH 20 0
BBX 19 23 0 -5
BITMAP
01FC00
07FF00
0F0780
1C0180
3800C0
31EEC0
63FE60
679E60
671C60
C60C60
CE0C60
CE1C60
CE1C60
CE1CC0
CE39C0
E77D80
67FF00
63DE00
300060
3C00E0
1F03C0
07FF80
01FC00
ENDCHAR

STARTCHAR A
ENCODING 65
SWIDTH 592 0
DWIDTH 15 0
BBX 14 18 0 0
BITMAP
00F0
00F0
01F0
01F0
03B0
03F0
0730
0738
0E38
0E38
1C38
1FF8
3FF8
3FF8
7018
701C
F01C
E01C
ENDCHAR

STARTCHAR B
ENCODING 66
SWIDTH 592 0
DWIDTH 15 0
BBX 14 18 0 0
BITMAP
1FF0
1FF8
1FFC
1C1C
1C1C
381C
3838
3FE8
3FF0
3FF8
383C
781C
781C
701C
703C
7FF8
FFF0
FFE0
ENDCHAR

STARTCHAR C
ENCODING 67
SWIDTH 592 0
DWIDTH 15 0
BBX 13 18 2 0
BITMAP
07C0
1FF0
1FF8
3C78
7838
7038
7000
E000
E000
E000
E000
E040
E078
F070
79E0
7FE0
3FC0
1F00
ENDCHAR

STARTCHAR D
ENCODING 68
SWIDTH 592 0
DWIDTH 15 0
BBX 14 18 1 0
BITMAP
1FE0
1FF0
1FF8
1C38
383C
381C
381C
381C
381C
781C
701C
703C
7038
7078
70F0
FFE0
FFC0
FF80
ENDCHAR

STARTCHAR E
ENCODING 69
SWIDTH 547 0
DWIDTH 14 0
BBX 14 18 1 0
BITMAP
1FFC
1FFC
1FF8
3800
3800
3800
3800
3FF0
7FF0
7FF0
7000
7000
7000
7000
E000
FFF0
FFF0
FFE0
ENDCHAR

STARTCHAR F
ENCODING 70
SWIDTH 501 0
DWIDTH 13 0
BBX 13 18 1 0
BITMAP
1FF8
1FF8
3FF8
3800
3800
3800
3800
3FF0
7FE0
7FE0
7000
7000
7000
E000
E000
E000
E000
E000
ENDCHAR

STARTCHAR G
ENCODING 71
SWIDTH 638 0
DWIDTH 16 0
BBX 14 18 2 0
BITMAP
07E0
0FF0
1FF8
3C3C
781C
7018
7000
E000
E1FC
E1FC
E1F8
E038
E038
F038
78F8
7FF8
3FF0
0F80
ENDCHAR

STARTCHAR H
ENCODING 72
SWIDTH 592 0
DWIDTH 15 0
BBX 15 18 1 0
BITMAP
1C0E
1C1C
1C1C
381C
381C
381C
381C
3FF8
3FF8
7FF8
7038
7038
7038
7070
F070
E070
E070
E070
ENDCHAR

STARTCHAR I
ENCODING 73
SWIDTH 228 0
DWIDTH 6 0
BBX 6 18 1 0
BITMAP
1C
1C
38
38
38
38
38
70
70
70
70
70
70
E0
E0
E0
E0
E0
ENDCHAR

STARTCHAR J
ENCODING 74
SWIDTH 456 0
DWIDTH 11 0
BBX 12 18 1 0
BITMAP
0070
0070
00E0
00E0
00E0
00E0
00E0
00E0
01C0
01C0
01C0
01C0
61C0
E380
E380
FF80
7F00
3E00
ENDCHAR

STARTCHAR K
ENCODING 75
SWIDTH 592 0
DWIDTH 15 0
BBX 16 18 1 0
BITMAP
1C1F
1C3C
1C78
38F0
38E0
39C0
3B80
3B80
7FC0
7EC0
7DC0
78E0
70E0
70F0
E070
E078
E038
E03C
ENDCHAR

STARTCHAR L
ENCODING 76
SWIDTH 501 0
DWIDTH 13 0
BBX 11 18 1 0
BITMAP
1C00
1C00
1C00
3800
3800
3800
3800
3800
3800
7000
7000
7000
7000
7000
E000
FFE0
FFE0
FFC0
ENDCHAR

STARTCHAR M
ENCODING 77
SWIDTH 683 0
DWIDTH 17 0
BBX 17 18 1 0
BITMAP
1E0780
1E0F80
3E0F80
3A1D00
3A1D00
3A3B00
363B00
363700
777700
777600
776600
776E00
67CE00
67CE00
E7CE00
E78C00
E79C00
E71C00
ENDCHAR

STARTCHAR N
ENCODING 78
SWIDTH 592 0
DWIDTH 15 0
BBX 15 18 1 0
BITMAP
1C0E
1C0C
1E1C
3E1C
3E1C
3F1C
3B1C
3B18
33B8
73B8
73B8
71D8
71F8
71F0
60F0
E0F0
E0F0
E070
ENDCHAR

STARTCHAR O
ENCODING 79
SWIDTH 638 0
DWIDTH 16 0
BBX 14 18 2 0
BITMAP
07E0
0FF0
1FF8
3C78
783C
701C
701C
E01C
E01C
E01C
E01C
E038
E038
F078
78F0
7FE0
3FC0
0F80
ENDCHAR

STARTCHAR P
ENCODING 80
SWIDTH 547 0
DWIDTH 14 0
BBX 14 18 0 0
BITMAP
1FF0
1FF8
1FFC
1C1C
1C1C
1C1C
381C
3878
3FF8
3FF0
3FE0
3800
7000
7000
7000
7000
7000
E000
ENDCHAR

STARTCHAR Q
ENCODING 81
SWIDTH 638 0
DWIDTH 16 0
BBX 14 20 2 -2
BITMAP
07E0
0FF0
1FF8
3C78
783C
701C
701C
E01C
E01C
E01C
E01C
E138
E338
F3F8
79F0
7FE0
3FE0
0F78
0030
0010
ENDCHAR

STARTCHAR R
ENCODING 82
SWIDTH 592 0
DWIDTH 15 0
BBX 14 18 1 0
BITMAP
1FF0
3FF8
3FFC
383C
381C
381C
381C
703C
7FF8
7FF0
7FC0
71C0
70E0
F0E0
E0F0
E070
E070
E038
ENDCHAR

STARTCHAR S
ENCODING 83
SWIDTH 547 0
DWIDTH 14 0
BBX 13 18 1 0
BITMAP
07C0
1FE0
1FF0
3C78
3838
3838
3C00
1F00
1FC0
0FE0
03F0
00F0
E070
E070
70F0
7FE0
3FC0
1F80
ENDCHAR

STARTCHAR T
ENCODING 84
SWIDTH 501 0
DWIDTH 13 0
BBX 13 18 2 0
BITMAP
7FF8
7FF0
FFF0
0700
0F00
0E00
0E00
0E00
0E00
0E00
1C00
1C00
1C00
1C00
1C00
1C00
3800
3800
ENDCHAR

STARTCHAR U
ENCODING 85
SWIDTH 592 0
DWIDTH 15 0
BBX 14 18 2 0
BITMAP
381C
381C
3838
7838
7038
7038
7038
7038
7070
E070
E070
E070
E070
E0E0
F1E0
7FC0
7FC0
1F00
ENDCHAR

STARTCHAR V
ENCODING 86
SWIDTH 547 0
DWIDTH 14 0
BBX 14 18 2 0
BITMAP
E01C
701C
7038
7038
7070
7070
70E0
70E0
39C0
39C0
39C0
3B80
3B80
3F00
3F00
1E00
1E00
1C00
ENDCHAR

STARTCHAR W
ENCODING 87
SWIDTH 774 0
DWIDTH 19 0
BBX 20 18 2 0
BITMAP
E0F070
E0F0E0
E0F0E0
E1F0E0
E1F1C0
63B1C0
63B380
677380
677380
667700
6E3700
6E3600
7C3E00
7C3C00
783C00
783C00
783800
703800
ENDCHAR

STARTCHAR X
ENCODING 88
SWIDTH 547 0
DWIDTH 14 0
BBX 17 18 -1 0
BITMAP
1E0780
0E0F00
0E0E00
071E00
073C00
07B800
03F800
03F000
01E000
03C000
03E000
07E000
0F7000
1E7000
1E7800
3C3800
783800
F03C00
ENDCHAR

STARTCHAR Y
ENCODING 89
SWIDTH 547 0
DWIDTH 14 0
BBX 14 18 2 0
BITMAP
F03C
7038
7078
3870
38E0
3DE0
1DC0
1DC0
1F80
0F00
0F00
0E00
0E00
0E00
0E00
0E00
1C00
1C00
ENDCHAR

STARTCHAR Z
ENCODING 90
SWIDTH 501 0
DWIDTH 13 0
BBX 14 18 0 0
BITMAP
1FFC
1FF8
1FF8
0078
00F0
00E0
01E0
03C0
0380
0780
0F00
1E00
1C00
3C00
7800
7FF0
7FF0
FFF0
ENDCHAR

STARTCHAR bracketleft
ENCODING 91
SWIDTH 273 0
DWIDTH 7 0
BBX 9 23 0 -5
BITMAP
0F80
0F80
0F80
0C00
1C00
1C00
1C00
1C00
1800
3800
3800
3800
3800
3800
3000
7000
7000
7000
7000
7000
7C00
F800
F800
ENDCHAR

STARTCHAR backslash
ENCODING 92
SWIDTH 228 0
DWIDTH 6 0
BBX 4 19 2 -1
BITMAP
C0
C0
C0
C0
C0
C0
C0
60
60
60
60
60
60
60
60
70
30
30
30
ENDCHAR

STARTCHAR bracketright
ENCODING 93
SWIDTH 273 0
DWIDTH 7 0
BBX 9 23 -1 -5
BITMAP
0F80
0F00
1F00
0700
0700
0700
0700
0600
0600
0E00
0E00
0E00
0E00
0C00
1C00
1C00
1C00
1C00
1C00
1800
F800
F800
F800
ENDCHAR

STARTCHAR asciicircum
ENCODING 94
SWIDTH 479 0
DWIDTH 12 0
BBX 10 10 1 8
BITMAP
0C00
1E00
1E00
1E00
3B00
3B00
7380
7380
7180
E1C0
ENDCHAR

STARTCHAR underscore
ENCODING 95
SWIDTH 456 0
DWIDTH 11 0
BBX 13 1 -1 -3
BITMAP
FFF8
ENDCHAR

STARTCHAR quoteleft
ENCODING 96
SWIDTH 228 0
DWIDTH 6 0
BBX 4 7 2 11
BITMAP
10
30
60
40
70
E0
E0
ENDCHAR

STARTCHAR a
ENCODING 97
SWIDTH 456 0
DWIDTH 11 0
BBX 10 13 1 0
BITMAP
1F80
3FC0
79C0
11C0
01C0
3FC0
7D80
F380
E380
E380
FF80
7D80
3380
ENDCHAR

STARTCHAR b
ENCODING 98
SWIDTH 501 0
DWIDTH 13 0
BBX 12 18 0 0
BITMAP
1C00
1C00
1C00
1C00
1800
3BC0
3FE0
3CF0
3870
3870
3070
7070
7070
70E0
78E0
7FC0
6FC0
E700
ENDCHAR

STARTCHAR c
ENCODING 99
SWIDTH 456 0
DWIDTH 11 0
BBX 10 13 1 0
BITMAP
0F00
1F80
3FC0
71C0
7080
E000
E000
E000
E1C0
E380
7F80
7F00
1C00
ENDCHAR

STARTCHAR d
ENCODING 100
SWIDTH 501 0
DWIDTH 13 0
BBX 13 18 1 0
BITMAP
0038
0070
0070
0070
0070
0E70
3F60
3FE0
71E0
70E0
E0E0
E0E0
E0C0
E1C0
E3C0
7FC0
7EC0
19C0
ENDCHAR

STARTCHAR e
ENCODING 101
SWIDTH 456 0
DWIDTH 11 0
BBX 10 13 1 0
BITMAP
1F00
3F80
7B80
71C0
61C0
E1C0
FFC0
FFC0
E000
E100
7380
7F00
3E00
ENDCHAR

STARTCHAR f
ENCODING 102
SWIDTH 273 0
DWIDTH 7 0
BBX 9 18 1 0
BITMAP
0F80
1F00
1F00
1C00
3800
7E00
FE00
FE00
3800
3000
7000
7000
7000
7000
7000
6000
E000
E000
ENDCHAR

STARTCHAR g
ENCODING 103
SWIDTH 501 0
DWIDTH 13 0
BBX 13 18 0 -5
BITMAP
0F38
1FB0
3CF0
38F0
3070
7070
7060
70E0
70E0
71E0
3FE0
3EE0
1CC0
81C0
F1C0
73C0
7F80
3F00
ENDCHAR

STARTCHAR h
ENCODING 104
SWIDTH 501 0
DWIDTH 13 0
BBX 11 18 1 0
BITMAP
1C00
1800
3800
3800
3800
3BC0
3FE0
3CE0
78E0
70E0
70E0
70E0
71C0
E1C0
E1C0
E1C0
E1C0
E180
ENDCHAR

STARTCHAR i
ENCODING 105
SWIDTH 228 0
DWIDTH 6 0
BBX 6 18 1 0
BITMAP
1C
18
38
00
00
38
38
30
70
70
70
70
70
60
E0
E0
E0
E0
ENDCHAR

STARTCHAR j
ENCODING 106
SWIDTH 228 0
DWIDTH 6 0
BBX 9 23 -2 -5
BITMAP
0380
0380
0700
0000
0000
0700
0700
0700
0E00
0E00
0E00
0E00
0E00
0C00
1C00
1C00
1C00
1C00
1C00
3800
F800
F800
F000
ENDCHAR

STARTCHAR k
ENCODING 107
SWIDTH 456 0
DWIDTH 11 0
BBX 12 18 1 0
BITMAP
1C00
1C00
3800
3800
3800
38F0
39C0
3BC0
7780
7E00
7F00
7F00
7B00
7300
E380
E380
E380
E1C0
ENDCHAR

STARTCHAR l
ENCODING 108
SWIDTH 228 0
DWIDTH 6 0
BBX 6 18 1 0
BITMAP
1C
18
38
38
38
38
38
30
70
70
70
70
70
E0
E0
E0
E0
E0
ENDCHAR

STARTCHAR m
ENCODING 109
SWIDTH 729 0
DWIDTH 18 0
BBX 17 13 1 0
BITMAP
3BCF00
3BDF80
3DF380
38E380
70E380
71C380
71C300
71C700
71C700
E1C700
E18700
E38700
E38E00
ENDCHAR

STARTCHAR n
ENCODING 110
SWIDTH 501 0
DWIDTH 13 0
BBX 11 13 1 0
BITMAP
3BC0
37E0
3CE0
78E0
70E0
70E0
70C0
71C0
E1C0
E1C0
E1C0
E1C0
E180
ENDCHAR

STARTCHAR o
ENCODING 111
SWIDTH 501 0
DWIDTH 13 0
BBX 11 13 1 0
BITMAP
0F00
3F80
7FC0
70E0
70E0
E0E0
E0E0
E0E0
E1C0
F1C0
7F80
3F80
1E00
ENDCHAR

STARTCHAR p
ENCODING 112
SWIDTH 501 0
DWIDTH 13 0
BBX 13 18 -1 -5
BITMAP
1DE0
1FF0
1E78
1C38
1C38
1838
3838
3838
3870
3C70
3FE0
77E0
7380
7000
7000
7000
6000
E000
ENDCHAR

STARTCHAR q
ENCODING 113
SWIDTH 501 0
DWIDTH 13 0
BBX 12 18 1 -5
BITMAP
0E70
3F60
7FE0
71E0
70E0
E0E0
E0E0
E1C0
E1C0
E3C0
7FC0
7EC0
39C0
0380
0380
0380
0380
0380
ENDCHAR

STARTCHAR r
ENCODING 114
SWIDTH 319 0
DWIDTH 8 0
BBX 9 13 1 0
BITMAP
3B80
3700
3700
7800
7800
7000
7000
7000
E000
E000
E000
E000
E000
ENDCHAR

STARTCHAR s
ENCODING 115
SWIDTH 456 0
DWIDTH 11 0
BBX 11 13 1 0
BITMAP
1F80
3FC0
71E0
7080
7800
7F00
3F80
0FC0
01C0
E1C0
F3C0
7F80
3F00
ENDCHAR

STARTCHAR t
ENCODING 116
SWIDTH 273 0
DWIDTH 7 0
BBX 6 18 2 0
BITMAP
08
08
38
38
38
FC
FC
FC
70
70
70
70
E0
E0
E0
F8
F8
70
ENDCHAR

STARTCHAR u
ENCODING 117
SWIDTH 501 0
DWIDTH 13 0
BBX 11 13 1 0
BITMAP
38E0
70E0
70E0
70E0
70E0
71C0
61C0
E1C0
E1C0
E3C0
F780
FD80
7B80
ENDCHAR

STARTCHAR v
ENCODING 118
SWIDTH 456 0
DWIDTH 11 0
BBX 11 13 2 0
BITMAP
C1E0
E1C0
E3C0
E380
E780
E700
6600
6E00
7400
7C00
7800
7800
3000
ENDCHAR

STARTCHAR w
ENCODING 119
SWIDTH 638 0
DWIDTH 16 0
BBX 16 13 1 0
BITMAP
E1C7
63C7
63CE
63CE
67CC
76DC
76DC
76D8
74D8
7CF0
38F0
38E0
38E0
ENDCHAR

STARTCHAR x
ENCODING 120
SWIDTH 456 0
DWIDTH 11 0
BBX 13 13 0 0
BITMAP
3878
38F0
1DE0
1DC0
0F80
0F80
0F00
0F00
1F80
3D80
7B80
71C0
E1C0
ENDCHAR

STARTCHAR y
ENCODING 121
SWIDTH 456 0
DWIDTH 11 0
BBX 13 18 0 -5
BITMAP
3838
3870
3870
38E0
38E0
19C0
19C0
1F80
1D80
1D00
1F00
1E00
0E00
1C00
1C00
F800
F800
F000
ENDCHAR

STARTCHAR z
ENCODING 122
SWIDTH 410 0
DWIDTH 10 0
BBX 11 13 0 0
BITMAP
3FE0
3FC0
3DC0
0380
0780
0700
0E00
1C00
3C00
3000
7FC0
7F80
FF80
ENDCHAR

STARTCHAR braceleft
ENCODING 123
SWIDTH 319 0
DWIDTH 8 0
BBX 10 23 1 -5
BITMAP
01C0
0780
0780
0E00
0E00
0E00
0C00
0C00
1C00
1800
7800
7000
F000
3800
3800
3800
3800
3000
7000
7000
7C00
7800
3800
ENDCHAR

STARTCHAR bar
ENCODING 124
SWIDTH 230 0
DWIDTH 6 0
BBX 2 24 3 -6
BITMAP
C0
C0
C0
C0
C0
C0
C0
C0
C0
C0
C0
C0
C0
C0
C0
C0
C0
C0
C0
C0
C0
C0
C0
C0
ENDCHAR

STARTCHAR braceright
ENCODING 125
SWIDTH 319 0
DWIDTH 8 0
BBX 10 23 -2 -5
BITMAP
0700
0780
0F80
0380
0380
0380
0700
0700
0700
0700
03C0
0380
0780
0700
0E00
0E00
0C00
1C00
1C00
1C00
7800
7800
E000
ENDCHAR

STARTCHAR asciitilde
ENCODING 126
SWIDTH 479 0
DWIDTH 12 0
BBX 11 5 1 6
BITMAP
7C20
7E60
FFE0
CFE0
83C0
ENDCHAR

STARTCHAR space
ENCODING 160
SWIDTH 228 0
DWIDTH 7 0
BBX 0 0 0 0
BITMAP
ENDCHAR

STARTCHAR exclamdown
ENCODING 161
SWIDTH 273 0
DWIDTH 7 0
BBX 6 18 0 -5
BITMAP
1C
1C
1C
00
18
18
18
38
38
30
30
70
70
70
70
70
E0
E0
ENDCHAR

STARTCHAR cent
ENCODING 162
SWIDTH 456 0
DWIDTH 11 0
BBX 11 22 1 -4
BITMAP
00C0
0080
0080
0180
0100
1F80
3FC0
7BC0
72E0
6600
E400
EC00
EC00
E9C0
FB80
7F80
3F00
3C00
2000
2000
6000
4000
ENDCHAR

STARTCHAR sterling
ENCODING 163
SWIDTH 456 0
DWIDTH 11 0
BBX 13 18 0 0
BITMAP
03C0
07E0
0FF0
0E70
1C38
1C00
1C00
1C00
3F80
7F00
6F00
1C00
1C00
3800
7040
FFC0
7FE0
43E0
ENDCHAR

STARTCHAR currency
ENCODING 164
SWIDTH 456 0
DWIDTH 11 0
BBX 10 13 1 2
BITMAP
4080
6EC0
FFC0
7F80
7380
6180
6180
6180
7380
7F80
FFC0
6EC0
4080
ENDCHAR

STARTCHAR yen
ENCODING 165
SWIDTH 456 0
DWIDTH 11 0
BBX 13 18 1 0
BITMAP
7078
3870
38E0
38E0
39C0
1DC0
1D80
1F00
7FE0
FFE0
0E00
0E00
FFC0
FFC0
1C00
1C00
1C00
1C00
ENDCHAR

STARTCHAR brokenbar
ENCODING 166
SWIDTH 230 0
DWIDTH 6 0
BBX 2 24 3 -6
BITMAP
C0
C0
C0
C0
C0
C0
C0
C0
C0
C0
00
00
00
00
C0
C0
C0
C0
C0
C0
C0
C0
C0
C0
ENDCHAR

STARTCHAR section
ENCODING 167
SWIDTH 456 0
DWIDTH 11 0
BBX 11 23 1 -5
BITMAP
0780
0FC0
1CE0
1CE0
1C00
0C00
1E00
3F00
7780
6380
61C0
71C0
70C0
38C0
3DC0
1F80
0F00
0700
2380
E380
F780
7F00
3E00
ENDCHAR

STARTCHAR dieresis
ENCODING 168
SWIDTH 273 0
DWIDTH 7 0
BBX 7 3 2 15
BITMAP
EE
CE
CC
ENDCHAR

STARTCHAR copyright
ENCODING 169
SWIDTH 604 0
DWIDTH 15 0
BBX 16 19 0 -1
BITMAP
07C0
0FF0
1818
300C
63C6
67E6
4672
CC23
CC03
CC03
CC03
CC33
4662
67E6
61C6
300C
1838
0FF0
03C0
ENDCHAR

STARTCHAR ordfeminine
ENCODING 170
SWIDTH 303 0
DWIDTH 8 0
BBX 7 9 2 9
BITMAP
3C
7E
66
06
7E
EC
CC
FC
74
ENDCHAR

STARTCHAR guillemotleft
ENCODING 171
SWIDTH 456 0
DWIDTH 11 0
BBX 11 12 1 0
BITMAP
0EE0
1DC0
1B80
3B80
7700
EE00
E600
6600
7700
3300
3300
3300
ENDCHAR

STARTCHAR logicalnot
ENCODING 172
SWIDTH 479 0
DWIDTH 12 0
BBX 11 8 1 5
BITMAP
FFE0
FFE0
FFE0
00E0
00E0
00E0
00E0
00E0
ENDCHAR

STARTCHAR hyphen
ENCODING 173
SWIDTH 273 0
DWIDTH 7 0
BBX 6 3 1 5
BITMAP
FC
FC
FC
ENDCHAR

STARTCHAR registered
ENCODING 174
SWIDTH 604 0
DWIDTH 15 0
BBX 16 19 0 -1
BITMAP
07C0
0FF0
1838
300C
6FC6
4FE6
4C62
CC63
CFC3
CF83
CCC3
4CC3
4C66
6C76
200C
301C
1C38
0FF0
03C0
ENDCHAR

STARTCHAR macron
ENCODING 175
SWIDTH 273 0
DWIDTH 7 0
BBX 7 2 2 15
BITMAP
FE
FC
ENDCHAR

STARTCHAR degree
ENCODING 176
SWIDTH 328 0
DWIDTH 8 0
BBX 7 8 1 10
BITMAP
38
7C
EE
C6
C6
EE
7C
38
ENDCHAR

STARTCHAR plusminus
ENCODING 177
SWIDTH 479 0
DWIDTH 12 0
BBX 11 17 1 0
BITMAP
0E00
0E00
0E00
0E00
0E00
FFE0
FFE0
FFE0
0E00
0E00
0E00
0E00
0E00
0000
FFE0
FFE0
FFE0
ENDCHAR

STARTCHAR twosuperior
ENCODING 178
SWIDTH 273 0
DWIDTH 7 0
BBX 6 9 2 9
BITMAP
38
7C
CC
0C
18
30
60
F8
F8
ENDCHAR

STARTCHAR threesuperior
ENCODING 179
SWIDTH 273 0
DWIDTH 7 0
BBX 6 10 2 8
BITMAP
38
7C
EC
0C
38
38
0C
CC
F8
70
ENDCHAR

STARTCHAR acute
ENCODING 180
SWIDTH 273 0
DWIDTH 7 0
BBX 5 3 4 15
BITMAP
78
60
C0
ENDCHAR

STARTCHAR mu
ENCODING 181
SWIDTH 501 0
DWIDTH 13 0
BBX 12 18 0 -5
BITMAP
1C70
1870
3870
3870
3870
3860
38E0
70E0
70E0
79E0
7FE0
7FC0
6EC0
E000
E000
E000
E000
E000
ENDCHAR

STARTCHAR paragraph
ENCODING 182
SWIDTH 456 0
DWIDTH 11 0
BBX 11 23 1 -5
BITMAP
3FE0
7FE0
FFE0
FCC0
FCC0
FCC0
FCC0
FCC0
7CC0
3CC0
0CC0
0CC0
0CC0
0CC0
0CC0
0CC0
0CC0
0CC0
0CC0
0CC0
0CC0
0CC0
0CC0
ENDCHAR

STARTCHAR periodcentered
ENCODING 183
SWIDTH 228 0
DWIDTH 6 0
BBX 3 3 2 7
BITMAP
E0
E0
E0
ENDCHAR

STARTCHAR cedilla
ENCODING 184
SWIDTH 273 0
DWIDTH 7 0
BBX 5 4 1 -5
BITMAP
70
18
38
F0
ENDCHAR

STARTCHAR onesuperior
ENCODING 185
SWIDTH 273 0
DWIDTH 7 0
BBX 5 10 2 8
BITMAP
08
18
78
78
98
30
30
30
30
30
ENDCHAR

STARTCHAR ordmasculine
ENCODING 186
SWIDTH 299 0
DWIDTH 7 0
BBX 7 9 1 9
BITMAP
3C
7E
66
C6
C6
C6
CC
7C
78
ENDCHAR

STARTCHAR guillemotright
ENCODING 187
SWIDTH 456 0
DWIDTH 11 0
BBX 10 12 1 0
BITMAP
3300
3300
3B80
3B80
1980
1DC0
1DC0
3B80
7700
7700
EE00
DC00
ENDCHAR

STARTCHAR onequarter
ENCODING 188
SWIDTH 684 0
DWIDTH 17 0
BBX 15 19 2 -1
BITMAP
0806
1804
780C
D818
1830
3030
3060
30C0
3080
0186
030E
061E
0414
0C3C
186C
107E
30FE
6008
C018
ENDCHAR

STARTCHAR onehalf
ENCODING 189
SWIDTH 684 0
DWIDTH 17 0
BBX 15 19 2 -1
BITMAP
0806
180C
7818
D810
B030
3060
3040
30C0
3180
6300
021C
063E
0C66
0806
180C
3018
6030
607C
C07C
ENDCHAR

STARTCHAR threequarters
ENCODING 190
SWIDTH 684 0
DWIDTH 17 0
BBX 16 19 2 -1
BITMAP
3803
7C06
EC0C
0C08
3818
3830
0C20
CC60
F8C0
3180
0186
030E
061E
0436
0C24
187E
307E
300C
600C
ENDCHAR

STARTCHAR questiondown
ENCODING 191
SWIDTH 501 0
DWIDTH 13 0
BBX 10 18 0 -5
BITMAP
0380
0380
0380
0000
0300
0700
0700
0E00
1E00
3C00
7800
7000
E080
E1C0
E1C0
7F80
7F00
1E00
ENDCHAR

STARTCHAR Agrave
ENCODING 192
SWIDTH 592 0
DWIDTH 15 0
BBX 14 23 0 0
BITMAP
00E0
00E0
0060
0030
0000
00F0
00F0
01F0
01F0
03B0
03F0
0730
0738
0E38
0E38
1C38
1FF8
3FF8
3FF8
7018
701C
F01C
E01C
ENDCHAR

STARTCHAR Aacute
ENCODING 193
SWIDTH 592 0
DWIDTH 15 0
BBX 14 23 0 0
BITMAP
001C
0038
0070
0060
0000
00F0
00F0
01F0
01F0
03B0
03F0
0730
0738
0E38
0E38
1C38
1FF8
3FF8
3FF8
7018
701C
F01C
E01C
ENDCHAR

STARTCHAR Acircumflex
ENCODING 194
SWIDTH 592 0
DWIDTH 15 0
BBX 14 23 0 0
BITMAP
0070
00F0
01D8
0398
0000
00F0
00F0
01F0
01F0
03B0
03F0
0730
0738
0E38
0E38
1C38
1FF8
3FF8
3FF8
7018
701C
F01C
E01C
ENDCHAR

STARTCHAR Atilde
ENCODING 195
SWIDTH 592 0
DWIDTH 15 0
BBX 14 22 0 0
BITMAP
00CC
01F8
0138
0000
00F0
00F0
01F0
01F0
03B0
03F0
0730
0738
0E38
0E38
1C38
1FF8
3FF8
3FF8
7018
701C
F01C
E01C
ENDCHAR

STARTCHAR Adieresis
ENCODING 196
SWIDTH 592 0
DWIDTH 15 0
BBX 14 23 0 0
BITMAP
01DC
019C
0198
0000
0000
00F0
01F0
01F0
01F0
03B0
03F0
0730
0738
0E38
0E38
1C38
1FF8
3FF8
3FF8
7018
701C
F01C
E01C
ENDCHAR

STARTCHAR Aring
ENCODING 197
SWIDTH 592 0
DWIDTH 15 0
BBX 14 23 0 0
BITMAP
0070
0090
0090
0060
0000
00F0
00F0
01F0
01F0
03B0
03B0
0738
0738
0E38
0E38
1C38
1FF8
3FF8
3FFC
701C
701C
E01C
E01C
ENDCHAR

STARTCHAR AE
ENCODING 198
SWIDTH 820 0
DWIDTH 21 0
BBX 23 18 -1 0
BITMAP
007FFE
00FFFC
00FFFC
01CE00
01CE00
038E00
038C00
071FF8
071FF8
0E1FF8
0FFC00
1FFC00
1FF800
383800
383800
383FF8
703FF8
F03FF0
ENDCHAR

STARTCHAR Ccedilla
ENCODING 199
SWIDTH 592 0
DWIDTH 15 0
BBX 13 23 2 -5
BITMAP
07C0
1FF0
3FF0
3C78
7838
7038
7000
E000
E000
E000
E000
E040
E070
F0F0
71E0
7FE0
3FC0
1500
0E00
0300
0300
1F00
3C00
ENDCHAR

STARTCHAR Egrave
ENCODING 200
SWIDTH 547 0
DWIDTH 14 0
BBX 14 23 1 0
BITMAP
0380
01C0
00C0
0000
0000
1FFC
1FFC
1FF8
3800
3800
3800
3800
3FF0
7FF0
7FF0
7000
7000
7000
7000
E000
FFF0
FFF0
FFE0
ENDCHAR

STARTCHAR Eacute
ENCODING 201
SWIDTH 547 0
DWIDTH 14 0
BBX 14 23 1 0
BITMAP
0070
00E0
00C0
0180
0000
1FFC
1FFC
1FF8
3800
3800
3800
3800
3FF0
7FF0
7FF0
7000
7000
7000
7000
E000
FFF0
FFF0
FFE0
ENDCHAR

STARTCHAR Ecircumflex
ENCODING 202
SWIDTH 547 0
DWIDTH 14 0
BBX 14 23 1 0
BITMAP
01C0
03E0
0360
0660
0000
1FFC
1FFC
1FF8
3800
3800
3800
3800
3FF0
7FF0
7FF0
7000
7000
7000
7000
E000
FFF0
FFF0
FFE0
ENDCHAR

STARTCHAR Edieresis
ENCODING 203
SWIDTH 547 0
DWIDTH 14 0
BBX 14 23 1 0
BITMAP
0330
0730
0770
0000
0000
1FFC
1FFC
3FF8
3800
3800
3800
3800
3FF0
7FF0
7FF0
7000
7000
7000
7000
E000
FFF0
FFF0
FFE0
ENDCHAR

STARTCHAR Igrave
ENCODING 204
SWIDTH 228 0
DWIDTH 6 0
BBX 6 23 1 0
BITMAP
38
18
1C
0C
00
1C
1C
38
38
38
38
38
70
70
70
70
70
70
E0
E0
E0
E0
E0
ENDCHAR

STARTCHAR Iacute
ENCODING 205
SWIDTH 228 0
DWIDTH 6 0
BBX 8 23 1 0
BITMAP
07
0E
0C
18
00
1C
1C
38
38
38
38
38
70
70
70
70
70
70
E0
E0
E0
E0
E0
ENDCHAR

STARTCHAR Icircumflex
ENCODING 206
SWIDTH 228 0
DWIDTH 6 0
BBX 7 23 1 0
BITMAP
1C
3E
76
E6
00
1C
1C
38
38
38
38
38
70
70
70
70
70
70
E0
E0
E0
E0
E0
ENDCHAR

STARTCHAR Idieresis
ENCODING 207
SWIDTH 228 0
DWIDTH 6 0
BBX 8 23 1 0
BITMAP
73
73
77
00
00
1C
1C
38
38
38
38
38
70
70
70
70
70
70
E0
E0
E0
E0
E0
ENDCHAR

STARTCHAR Gbreve
ENCODING 208
SWIDTH 638 0
DWIDTH 16 0
BBX 14 23 2 0
BITMAP
0230
0220
03E0
01C0
0000
03E0
0FF0
1FF8
3C3C
781C
7018
7000
E000
E1FC
E1FC
E1F8
E038
E038
F038
78F8
7FF8
3FE0
1F80
ENDCHAR

STARTCHAR Ntilde
ENCODING 209
SWIDTH 592 0
DWIDTH 15 0
BBX 15 22 1 0
BITMAP
0198
03F0
0270
0000
1C0E
1C0C
1E1C
3E1C
3E1C
3F1C
3B1C
3B18
33B8
73B8
73B8
71D8
71F8
71F0
60F0
E0F0
E0F0
E070
ENDCHAR

STARTCHAR Ograve
ENCODING 210
SWIDTH 638 0
DWIDTH 16 0
BBX 14 23 2 0
BITMAP
0380
01C0
00C0
00C0
0000
07E0
0FF0
1FF8
3C78
383C
701C
701C
E01C
E01C
E01C
E01C
E038
E038
F078
78F0
7FE0
3FC0
0F80
ENDCHAR

STARTCHAR Oacute
ENCODING 211
SWIDTH 638 0
DWIDTH 16 0
BBX 14 23 2 0
BITMAP
0070
0060
00C0
0180
0000
07E0
0FF0
1FF8
3C78
383C
701C
701C
E01C
E01C
E01C
E01C
E038
E038
F078
78F0
7FE0
3FC0
0F80
ENDCHAR

STARTCHAR Ocircumflex
ENCODING 212
SWIDTH 638 0
DWIDTH 16 0
BBX 14 23 2 0
BITMAP
01C0
01E0
0360
0670
0000
07E0
0FF0
1FF8
3C78
383C
701C
701C
E01C
E01C
E01C
E01C
E038
E038
F078
78F0
7FE0
3FC0
0F80
ENDCHAR

STARTCHAR Otilde
ENCODING 213
SWIDTH 638 0
DWIDTH 16 0
BBX 14 22 2 0
BITMAP
0390
03F0
0260
0000
07E0
0FF0
1FF8
3C78
383C
701C
701C
E01C
E01C
E01C
E01C
E038
E038
F078
78F0
7FE0
3FC0
0F80
ENDCHAR

STARTCHAR Odieresis
ENCODING 214
SWIDTH 638 0
DWIDTH 16 0
BBX 14 23 2 0
BITMAP
0330
0330
0730
0000
0000
07E0
0FF0
1FF8
3C78
383C
701C
701C
E01C
E01C
E01C
E01C
E038
E038
F078
78F0
7FE0
3FC0
0F80
ENDCHAR

STARTCHAR multiply
ENCODING 215
SWIDTH 479 0
DWIDTH 12 0
BBX 10 12 2 3
BITMAP
2080
6180
F3C0
7780
3F00
3E00
1E00
3F00
7B80
F3C0
E380
4100
ENDCHAR

STARTCHAR Oslash
ENCODING 216
SWIDTH 638 0
DWIDTH 16 0
BBX 14 20 2 -1
BITMAP
0008
07EC
0FF8
1FF8
3C78
787C
70EC
70DC
E19C
E39C
E31C
E61C
EE38
FC38
F878
78F0
7FE0
7FC0
CF00
4000
ENDCHAR

STARTCHAR Ugrave
ENCODING 217
SWIDTH 592 0
DWIDTH 15 0
BBX 14 23 2 0
BITMAP
0380
01C0
00C0
00C0
0000
381C
381C
3838
7838
7038
7038
7038
7038
7070
E070
E070
E070
E070
E0E0
F1E0
7FC0
7F80
1F00
ENDCHAR

STARTCHAR Uacute
ENCODING 218
SWIDTH 592 0
DWIDTH 15 0
BBX 14 23 2 0
BITMAP
0070
00E0
00C0
0180
0000
381C
381C
3838
7838
7038
7038
7038
7038
7070
E070
E070
E070
E070
E0E0
F1E0
7FC0
7F80
1F00
ENDCHAR

STARTCHAR Ucircumflex
ENCODING 219
SWIDTH 592 0
DWIDTH 15 0
BBX 14 23 2 0
BITMAP
01C0
01E0
0360
0670
0000
381C
381C
3838
7838
7038
7038
7038
7038
7070
E070
E070
E070
E070
E0E0
F1E0
7FC0
7F80
1F00
ENDCHAR

STARTCHAR Udieresis
ENCODING 220
SWIDTH 592 0
DWIDTH 15 0
BBX 14 23 2 0
BITMAP
0330
0330
0730
0000
0000
381C
381C
3838
7838
7038
7038
7038
7038
7070
E070
E070
E070
E070
E0E0
F1E0
7FC0
7F80
1F00
ENDCHAR

STARTCHAR Idotaccent
ENCODING 221
SWIDTH 228 0
DWIDTH 6 0
BBX 6 23 1 0
BITMAP
1C
1C
1C
00
00
1C
1C
38
38
38
38
38
70
70
70
70
70
70
E0
E0
E0
E0
E0
ENDCHAR

STARTCHAR Scedilla
ENCODING 222
SWIDTH 547 0
DWIDTH 14 0
BBX 13 23 1 -5
BITMAP
07C0
1FE0
1FF0
3878
3838
3800
3C00
1F00
0FC0
07E0
01F0
00F0
E070
E070
70F0
7FE0
3FC0
1F80
0E00
0B00
0300
0700
1E00
ENDCHAR

STARTCHAR germandbls
ENCODING 223
SWIDTH 501 0
DWIDTH 13 0
BBX 11 18 1 0
BITMAP
0780
0FC0
1FE0
1CE0
38E0
39C0
39C0
3B80
7380
7380
73C0
71C0
70E0
60E0
E4E0
EFE0
EFC0
E380
ENDCHAR

STARTCHAR agrave
ENCODING 224
SWIDTH 456 0
DWIDTH 11 0
BBX 10 18 1 0
BITMAP
0E00
0700
0300
0000
0000
1F80
3FC0
79C0
11C0
01C0
3FC0
7F80
F380
E380
E380
FF80
7D80
3380
ENDCHAR

STARTCHAR aacute
ENCODING 225
SWIDTH 456 0
DWIDTH 11 0
BBX 10 18 1 0
BITMAP
01C0
0380
0700
0000
0000
1F80
3FC0
79C0
11C0
01C0
3FC0
7F80
F380
E380
E380
FF80
7D80
3380
ENDCHAR

STARTCHAR acircumflex
ENCODING 226
SWIDTH 456 0
DWIDTH 11 0
BBX 10 19 1 0
BITMAP
0700
0780
0D80
1DC0
0000
0000
1F80
3FC0
79C0
11C0
01C0
3FC0
7F80
F380
E380
E380
FF80
7D80
3380
ENDCHAR

STARTCHAR atilde
ENCODING 227
SWIDTH 456 0
DWIDTH 11 0
BBX 10 18 1 0
BITMAP
0640
0FC0
0980
0000
0000
1F80
3FC0
79C0
11C0
01C0
3FC0
7F80
F380
E380
E380
FF80
7D80
3380
ENDCHAR

STARTCHAR adieresis
ENCODING 228
SWIDTH 456 0
DWIDTH 11 0
BBX 10 18 1 0
BITMAP
0CC0
0CC0
1DC0
0000
0000
1F80
3FC0
79C0
11C0
01C0
3FC0
7F80
F380
E380
E380
FF80
7D80
3380
ENDCHAR

STARTCHAR aring
ENCODING 229
SWIDTH 456 0
DWIDTH 11 0
BBX 11 19 1 0
BITMAP
0300
0780
0480
0780
0300
0000
1F80
3FC0
79E0
11E0
01E0
3FE0
7FC0
F1C0
E1C0
E3C0
FDC0
7DC0
3BC0
ENDCHAR

STARTCHAR ae
ENCODING 230
SWIDTH 729 0
DWIDTH 18 0
BBX 18 13 0 0
BITMAP
1F9F00
3FFF80
79F380
00E1C0
01E1C0
3FFFC0
7DFFC0
E1E000
E1E100
E3E380
FF7F00
7E7F00
381C00
ENDCHAR

STARTCHAR ccedilla
ENCODING 231
SWIDTH 456 0
DWIDTH 11 0
BBX 11 18 1 -5
BITMAP
0700
1FC0
3FC0
78E0
7080
F000
E000
E000
E1C0
F3C0
7F80
7F00
0E00
1C00
1600
0600
0E00
7C00
ENDCHAR

STARTCHAR egrave
ENCODING 232
SWIDTH 456 0
DWIDTH 11 0
BBX 10 18 1 0
BITMAP
0E00
0700
0300
0000
0000
1F00
3F80
7B80
71C0
61C0
E1C0
FFC0
FFC0
E000
E100
7380
7F00
3E00
ENDCHAR

STARTCHAR eacute
ENCODING 233
SWIDTH 456 0
DWIDTH 11 0
BBX 10 18 1 0
BITMAP
01C0
0380
0700
0000
0000
1F00
3F80
7B80
71C0
61C0
E1C0
FFC0
FFC0
E000
E100
7380
7F00
3E00
ENDCHAR

STARTCHAR ecircumflex
ENCODING 234
SWIDTH 456 0
DWIDTH 11 0
BBX 10 18 1 0
BITMAP
0700
0780
0D80
1980
0000
1F00
3F80
7B80
71C0
61C0
E1C0
FFC0
FFC0
E000
E100
7380
7F00
3E00
ENDCHAR

STARTCHAR edieresis
ENCODING 235
SWIDTH 456 0
DWIDTH 11 0
BBX 10 18 1 0
BITMAP
0CC0
0CC0
1DC0
0000
0000
1F00
3F80
7B80
71C0
61C0
E1C0
FFC0
FFC0
E000
E100
7380
7F00
3E00
ENDCHAR

STARTCHAR igrave
ENCODING 236
SWIDTH 228 0
DWIDTH 6 0
BBX 6 18 1 0
BITMAP
38
18
18
0C
00
38
38
30
70
70
70
70
70
60
E0
E0
E0
E0
ENDCHAR

STARTCHAR iacute
ENCODING 237
SWIDTH 228 0
DWIDTH 6 0
BBX 8 18 1 0
BITMAP
0F
0C
1C
18
00
38
38
30
70
70
70
70
70
60
E0
E0
E0
E0
ENDCHAR

STARTCHAR icircumflex
ENCODING 238
SWIDTH 228 0
DWIDTH 6 0
BBX 7 18 1 0
BITMAP
1C
3C
76
E6
00
38
38
30
70
70
70
70
70
60
E0
E0
E0
E0
ENDCHAR

STARTCHAR idieresis
ENCODING 239
SWIDTH 228 0
DWIDTH 6 0
BBX 8 18 1 0
BITMAP
77
67
66
00
00
38
38
30
70
70
70
70
70
60
E0
E0
E0
E0
ENDCHAR

STARTCHAR gbreve
ENCODING 240
SWIDTH 501 0
DWIDTH 13 0
BBX 13 23 0 -5
BITMAP
0420
0660
03C0
0180
0000
0F38
1FB0
3CF0
38F0
3070
7070
7060
70E0
70E0
71E0
3FE0
3EE0
1CC0
81C0
F1C0
73C0
7F80
3F00
ENDCHAR

STARTCHAR ntilde
ENCODING 241
SWIDTH 501 0
DWIDTH 13 0
BBX 11 18 1 0
BITMAP
0660
0FC0
09C0
0000
0000
3BC0
37E0
3CE0
78E0
70E0
70E0
70C0
71C0
E1C0
E1C0
E1C0
E1C0
E180
ENDCHAR

STARTCHAR ograve
ENCODING 242
SWIDTH 501 0
DWIDTH 13 0
BBX 11 18 1 0
BITMAP
0700
0300
0300
0180
0000
0F00
3F80
7FC0
70E0
70E0
E0E0
E0E0
E0E0
E1C0
F1C0
7F80
3F80
1E00
ENDCHAR

STARTCHAR oacute
ENCODING 243
SWIDTH 501 0
DWIDTH 13 0
BBX 11 18 1 0
BITMAP
00E0
01C0
0180
0300
0000
0F00
3F80
7FC0
70E0
70E0
E0E0
E0E0
E0E0
E1C0
F1C0
7F80
3F80
1E00
ENDCHAR

STARTCHAR ocircumflex
ENCODING 244
SWIDTH 501 0
DWIDTH 13 0
BBX 11 18 1 0
BITMAP
0380
0780
0EC0
1CC0
0000
0F00
3F80
7FC0
70E0
70E0
E0E0
E0E0
E0E0
E1C0
F1C0
7F80
3F80
1E00
ENDCHAR

STARTCHAR otilde
ENCODING 245
SWIDTH 501 0
DWIDTH 13 0
BBX 11 18 1 0
BITMAP
0760
0FC0
0DC0
0000
0000
0F00
3F80
7FC0
70E0
70E0
E0E0
E0E0
E0E0
E1C0
F1C0
7F80
3F80
1E00
ENDCHAR

STARTCHAR odieresis
ENCODING 246
SWIDTH 501 0
DWIDTH 13 0
BBX 11 18 1 0
BITMAP
0EE0
0EE0
0CC0
0000
0000
0F00
3FC0
7FC0
70E0
70E0
E0E0
E0E0
E0E0
E1C0
F1C0
7F80
3F80
1E00
ENDCHAR

STARTCHAR divide
ENCODING 247
SWIDTH 479 0
DWIDTH 12 0
BBX 11 13 1 2
BITMAP
0E00
0E00
0E00
0000
0000
FFE0
FFE0
FFE0
0000
0000
0E00
0E00
0E00
ENDCHAR

STARTCHAR oslash
ENCODING 248
SWIDTH 501 0
DWIDTH 13 0
BBX 11 15 1 -1
BITMAP
0060
1FE0
3FC0
79C0
73E0
E360
E6E0
ECE0
ECE0
F9C0
71C0
7F80
7F00
DE00
4000
ENDCHAR

STARTCHAR ugrave
ENCODING 249
SWIDTH 501 0
DWIDTH 13 0
BBX 11 18 1 0
BITMAP
0700
0300
0180
0180
0000
38E0
70E0
70E0
70E0
70E0
71C0
E1C0
E1C0
E1C0
E3C0
FF80
7F80
3000
ENDCHAR

STARTCHAR uacute
ENCODING 250
SWIDTH 501 0
DWIDTH 13 0
BBX 11 19 1 0
BITMAP
01C0
0180
0380
0700
0000
0000
38E0
70E0
70E0
70E0
70E0
71C0
E1C0
E1C0
E1C0
E3C0
FF80
7F80
3000
ENDCHAR

STARTCHAR ucircumflex
ENCODING 251
SWIDTH 501 0
DWIDTH 13 0
BBX 11 19 1 0
BITMAP
0380
07C0
06C0
1CC0
0000
0000
38E0
70E0
70E0
70E0
70E0
71C0
E1C0
E1C0
E1C0
E3C0
FF80
7F80
3000
ENDCHAR

STARTCHAR udieresis
ENCODING 252
SWIDTH 501 0
DWIDTH 13 0
BBX 11 18 1 0
BITMAP
0E60
0E60
0EE0
0000
0000
38E0
70E0
70E0
70E0
70E0
71C0
E1C0
E1C0
E1C0
E3C0
FF80
7F80
3000
ENDCHAR

STARTCHAR dotlessi
ENCODING 253
SWIDTH 228 0
DWIDTH 6 0
BBX 5 13 1 0
BITMAP
38
38
30
70
70
70
70
70
60
E0
E0
E0
E0
ENDCHAR

STARTCHAR scedilla
ENCODING 254
SWIDTH 456 0
DWIDTH 11 0
BBX 11 18 1 -5
BITMAP
1F80
3FC0
71E0
7080
7C00
3F00
1F80
07C0
21C0
E1C0
FF80
7F80
0E00
1C00
0600
0600
0E00
3C00
ENDCHAR

STARTCHAR ydieresis
ENCODING 255
SWIDTH 456 0
DWIDTH 11 0
BBX 13 23 0 -5
BITMAP
0770
0770
0670
0000
0000
3838
3870
3870
38E0
38E0
19C0
19C0
1F80
1D80
1D00
1F00
1E00
0E00
1C00
1C00
F800
F800
F000
ENDCHAR
ENDFONT
